<?xml version="1.0" encoding="utf-8"?>
<!-- Generator: Adobe Illustrator 26.3.1, SVG Export Plug-In . SVG Version: 6.00 Build 0)  -->
<svg version="1.1"
	 id="svg8" xmlns:rdf="http://www.w3.org/1999/02/22-rdf-syntax-ns#" xmlns:dc="http://purl.org/dc/elements/1.1/" xmlns:cc="http://creativecommons.org/ns#" xmlns:svg="http://www.w3.org/2000/svg"
	 xmlns="http://www.w3.org/2000/svg" xmlns:xlink="http://www.w3.org/1999/xlink" x="0px" y="0px" viewBox="0 0 1024.2 482.1"
	 style="enable-background:new 0 0 1024.2 482.1;" xml:space="preserve">
<style type="text/css">
	.st0{fill:#A6A6A6;}
	.st1{fill:#DA251D;}
	.st2{fill:#00CCFF;}
	.st3{fill:none;stroke:#000000;stroke-width:8;stroke-miterlimit:10;}
	.st4{font-family:'ToppanBunkyuMidashiGothicStdN-ExtraBold-83pv-RKSJ-H';}
	.st5{font-size:60px;}
</style>
<path id="rect847" class="st0" d="M25.8,51.4h14.5v175.8H25.8L25.8,51.4z"/>
<path id="rect847-2" class="st0" d="M226.3,51.4h14.5v175.8h-14.5L226.3,51.4z"/>
<path id="rect847-0" class="st0" d="M226.3,252h14.5v175.8h-14.5L226.3,252z"/>
<path id="rect847-28" class="st0" d="M25.8,252h14.5v175.8H25.8L25.8,252z"/>
<path id="rect847-8" class="st0" d="M45.4,46.4V31.8h175.8v14.5H45.4z"/>
<path id="rect847-03" class="st0" d="M126,51.6h14.5v175.8H126V51.6z"/>
<path id="rect847-83" class="st0" d="M126,250.6h14.5v175.8H126V250.6z"/>
<path id="rect847-8-3" class="st0" d="M45.4,447.3v-14.5h175.8v14.5H45.4z"/>
<path id="rect847-8-9" class="st0" d="M45.7,246.8v-14.5h75v14.5H45.7z"/>
<path id="rect847-8-9-0" class="st0" d="M145.9,246.8v-14.5h75v14.5H145.9z"/>
<path id="rect847-8-35" class="st0" d="M47.6,58.6l13.7-4.7L118.8,220l-13.7,4.7L47.6,58.6z"/>
<path id="rect847-8-35-0" class="st0" d="M219,58.6l-13.7-4.7L147.8,220l13.7,4.7L219,58.6z"/>
<path id="rect847-8-35-5" class="st0" d="M47.6,420.5l13.7,4.7l57.5-166.2l-13.7-4.7L47.6,420.5z"/>
<path id="rect847-8-35-0-3" class="st0" d="M219,420.5l-13.7,4.7l-57.5-166.2l13.7-4.7L219,420.5z"/>
<g id="text1083-6" transform="matrix(1.2551077,0,0,1.2551077,-125.91301,-145.41286)">
	<path id="path1329" d="M170.2,444.3h-1.9l-3.4-3.7l-0.9,0.9v2.8h-1.4v-11.9h1.4v7.6l4.1-4.3h1.8l-4,3.9L170.2,444.3z"/>
</g>
<g id="text1083-6-9" transform="matrix(1.2551077,0,0,1.2551077,-125.91301,-145.41286)">
	<path id="path1332" d="M218.8,444.3h-1.4v-11.9h1.4V444.3z"/>
</g>
<g id="text1083-6-6" transform="matrix(1.2551077,0,0,1.2551077,-125.91301,-145.41286)">
	<path id="path1335" d="M253.3,444.3h-1.4v-4.9c0-0.4,0-0.7-0.1-1.1c0-0.3-0.1-0.6-0.2-0.8c-0.1-0.2-0.3-0.4-0.5-0.5
		c-0.2-0.1-0.5-0.2-0.9-0.2c-0.4,0-0.8,0.1-1.2,0.3c-0.4,0.2-0.8,0.5-1.2,0.8c0,0.1,0,0.3,0,0.4c0,0.2,0,0.3,0,0.5v5.5h-1.4v-4.9
		c0-0.4,0-0.7-0.1-1.1c0-0.3-0.1-0.6-0.2-0.8c-0.1-0.2-0.3-0.4-0.5-0.5c-0.2-0.1-0.5-0.2-0.9-0.2c-0.4,0-0.8,0.1-1.2,0.3
		c-0.4,0.2-0.8,0.4-1.2,0.7v6.4h-1.4v-8.5h1.4v0.9c0.4-0.4,0.9-0.7,1.3-0.9c0.4-0.2,0.9-0.3,1.4-0.3c0.6,0,1.1,0.1,1.5,0.4
		c0.4,0.2,0.7,0.6,0.9,1c0.6-0.5,1.1-0.8,1.6-1.1c0.5-0.2,1-0.3,1.5-0.3c0.9,0,1.6,0.3,2.1,0.9c0.4,0.6,0.7,1.4,0.7,2.4L253.3,444.3
		z"/>
</g>
<g id="text1083-6-8" transform="matrix(1.2551077,0,0,1.2551077,-125.91301,-145.41286)">
	<path id="path1338" d="M171.1,187.3h-1.4v-4.9c0-0.4,0-0.8-0.1-1.1c0-0.3-0.1-0.6-0.3-0.8c-0.1-0.2-0.3-0.4-0.5-0.5
		c-0.2-0.1-0.6-0.2-0.9-0.2c-0.4,0-0.8,0.1-1.2,0.3c-0.4,0.2-0.8,0.4-1.2,0.7v6.4h-1.4v-11.9h1.4v4.3c0.4-0.4,0.9-0.7,1.4-0.9
		c0.5-0.2,1-0.3,1.5-0.3c0.9,0,1.6,0.3,2.1,0.8c0.5,0.6,0.7,1.4,0.7,2.4L171.1,187.3z"/>
</g>
<g id="text1083-6-9-6" transform="matrix(1.2551077,0,0,1.2551077,-125.91301,-145.41286)">
	<path id="path1341" d="M220.4,177.3h-1.6v-1.5h1.6V177.3z M220.3,187.3h-1.4v-8.5h1.4V187.3z"/>
</g>
<g id="text1083-6-6-1" transform="matrix(1.2551077,0,0,1.2551077,-125.91301,-145.41286)">
	<path id="path1344" d="M251.4,177.3h-1.6v-1.5h1.6V177.3z M251.4,187.5c0,1-0.3,1.8-0.8,2.3c-0.5,0.5-1.2,0.8-2,0.8
		c-0.2,0-0.5,0-0.8-0.1c-0.3,0-0.6-0.1-0.8-0.2V189h0.1c0.1,0.1,0.3,0.1,0.6,0.2c0.2,0.1,0.5,0.1,0.7,0.1c0.4,0,0.7-0.1,0.9-0.2
		c0.2-0.1,0.4-0.3,0.5-0.5c0.1-0.2,0.2-0.5,0.2-0.7c0-0.3,0.1-0.6,0.1-1V180h-1.8v-1.2h3.2L251.4,187.5z"/>
</g>
<g id="text1083-6-6-1-2" transform="matrix(1.2551077,0,0,1.2551077,-125.91301,-145.41286)">
	<path id="path1347" d="M153.1,293.4c0,1.4-0.3,2.5-1,3.2c-0.7,0.7-1.7,1-3,1c-0.5,0-0.9,0-1.3-0.1c-0.4-0.1-0.9-0.2-1.3-0.3v-1.5
		h0.1c0.2,0.1,0.6,0.2,1.1,0.3c0.5,0.1,1,0.2,1.5,0.2c0.5,0,0.9-0.1,1.2-0.2c0.3-0.1,0.6-0.3,0.7-0.5c0.2-0.2,0.3-0.4,0.4-0.7
		c0.1-0.3,0.1-0.6,0.1-0.9v-0.8c-0.4,0.3-0.8,0.6-1.2,0.8c-0.4,0.2-0.9,0.3-1.5,0.3c-1,0-1.8-0.4-2.4-1.1c-0.6-0.7-0.9-1.8-0.9-3.1
		c0-0.7,0.1-1.4,0.3-1.9c0.2-0.5,0.5-1,0.8-1.4c0.3-0.4,0.7-0.6,1.2-0.8c0.5-0.2,0.9-0.3,1.4-0.3c0.5,0,0.9,0.1,1.2,0.2
		c0.3,0.1,0.7,0.2,1.1,0.5l0.1-0.4h1.3L153.1,293.4z M151.7,292.1v-4.7c-0.4-0.2-0.7-0.3-1.1-0.4c-0.3-0.1-0.7-0.1-1-0.1
		c-0.8,0-1.4,0.3-1.9,0.8s-0.7,1.3-0.7,2.3c0,1,0.2,1.7,0.5,2.2c0.3,0.5,0.9,0.7,1.7,0.7c0.4,0,0.8-0.1,1.3-0.2
		C151,292.5,151.3,292.3,151.7,292.1L151.7,292.1z"/>
	<path id="path1349" d="M162.8,294.4h-6.2v-1.2h2.4v-7.6h-2.4v-1c0.3,0,0.7,0,1-0.1c0.4-0.1,0.6-0.1,0.8-0.2
		c0.2-0.1,0.4-0.3,0.5-0.5c0.1-0.2,0.2-0.5,0.2-0.8h1.2v10.3h2.3L162.8,294.4z"/>
</g>
<g id="text1083-6-6-1-2-2" transform="matrix(1.2551077,0,0,1.2551077,-125.91301,-145.41286)">
	<path id="path1352" d="M260.1,293.4c0,1.4-0.3,2.5-1,3.2c-0.7,0.7-1.7,1-3,1c-0.5,0-0.9,0-1.3-0.1c-0.4-0.1-0.9-0.2-1.3-0.3v-1.5
		h0.1c0.2,0.1,0.6,0.2,1.1,0.3c0.5,0.1,1,0.2,1.5,0.2c0.5,0,0.9-0.1,1.2-0.2c0.3-0.1,0.6-0.3,0.7-0.5c0.2-0.2,0.3-0.4,0.4-0.7
		c0.1-0.3,0.1-0.6,0.1-0.9v-0.8c-0.4,0.3-0.8,0.6-1.2,0.8c-0.4,0.2-0.9,0.3-1.5,0.3c-1,0-1.8-0.4-2.4-1.1c-0.6-0.7-0.9-1.8-0.9-3.1
		c0-0.7,0.1-1.4,0.3-1.9c0.2-0.5,0.5-1,0.8-1.4c0.3-0.4,0.7-0.6,1.2-0.8c0.5-0.2,0.9-0.3,1.4-0.3c0.5,0,0.9,0.1,1.2,0.2
		c0.3,0.1,0.7,0.2,1.1,0.5l0.1-0.4h1.3L260.1,293.4z M258.6,292.1v-4.7c-0.4-0.2-0.7-0.3-1.1-0.4c-0.3-0.1-0.7-0.1-1-0.1
		c-0.8,0-1.4,0.3-1.9,0.8c-0.5,0.5-0.7,1.3-0.7,2.3c0,1,0.2,1.7,0.5,2.2c0.3,0.5,0.9,0.7,1.7,0.7c0.4,0,0.8-0.1,1.3-0.2
		C257.9,292.5,258.3,292.3,258.6,292.1L258.6,292.1z"/>
	<path id="path1354" d="M270.4,294.4h-7.7v-1.6c0.5-0.5,1.1-0.9,1.6-1.4c0.5-0.5,1-0.9,1.5-1.4c1-0.9,1.6-1.7,2-2.3
		c0.4-0.6,0.5-1.2,0.5-1.8c0-0.6-0.2-1.1-0.6-1.4c-0.4-0.3-0.9-0.5-1.6-0.5c-0.5,0-1,0.1-1.5,0.2c-0.5,0.2-1.1,0.4-1.6,0.7H263v-1.6
		c0.4-0.2,0.8-0.3,1.4-0.5c0.6-0.1,1.2-0.2,1.8-0.2c1.2,0,2.1,0.3,2.7,0.8c0.7,0.6,1,1.3,1,2.3c0,0.4-0.1,0.8-0.2,1.2
		c-0.1,0.4-0.3,0.7-0.5,1.1c-0.2,0.3-0.4,0.6-0.7,0.9c-0.3,0.3-0.6,0.6-1,1c-0.5,0.5-1.1,1.1-1.7,1.6c-0.6,0.5-1.1,1-1.6,1.4h6.1
		L270.4,294.4z"/>
</g>
<g id="text1235" transform="matrix(1.2551077,0,0,1.2551077,-125.91301,-145.41286)">
	<path id="path1357" d="M215.5,134.5h-3v-1.9c-0.3,0.2-0.6,0.4-1.1,0.8c-0.5,0.3-0.9,0.6-1.3,0.8c-0.5,0.2-1.1,0.5-1.8,0.6
		c-0.7,0.2-1.4,0.3-2.3,0.3c-1.6,0-3-0.5-4.2-1.6c-1.1-1.1-1.7-2.5-1.7-4.1c0-1.4,0.3-2.5,0.9-3.3c0.6-0.9,1.4-1.5,2.5-2
		c1.1-0.5,2.4-0.8,4-1c1.6-0.2,3.2-0.3,5-0.4V122c0-0.7-0.1-1.3-0.4-1.7c-0.2-0.5-0.6-0.8-1-1.1c-0.4-0.2-1-0.4-1.6-0.5
		c-0.6-0.1-1.2-0.1-1.9-0.1c-0.8,0-1.7,0.1-2.7,0.3c-1,0.2-2,0.5-3.1,0.9h-0.2v-3.1c0.6-0.2,1.5-0.3,2.6-0.5
		c1.1-0.2,2.2-0.3,3.3-0.3c1.3,0,2.4,0.1,3.3,0.3c1,0.2,1.8,0.6,2.5,1.1c0.7,0.5,1.2,1.1,1.6,1.9c0.4,0.8,0.5,1.8,0.5,2.9
		L215.5,134.5z M212.5,130v-5.1c-0.9,0.1-2,0.1-3.3,0.2c-1.3,0.1-2.3,0.3-3,0.5c-0.9,0.2-1.6,0.6-2.1,1.2c-0.5,0.5-0.8,1.2-0.8,2.2
		c0,1,0.3,1.8,0.9,2.4c0.6,0.5,1.6,0.8,2.9,0.8c1.1,0,2.1-0.2,2.9-0.6C210.9,131.1,211.7,130.6,212.5,130L212.5,130z"/>
</g>
<g id="text1235-8" transform="matrix(1.2551077,0,0,1.2551077,-125.91301,-145.41286)">
	<path id="path1360" d="M114.4,214.2h-0.2c-0.3-0.1-0.8-0.2-1.3-0.3c-0.5-0.1-1-0.2-1.4-0.2c-1.3,0-2.3,0.3-2.9,0.9
		c-0.6,0.6-0.9,1.6-0.9,3.1v0.6h5.5v2.6h-5.4v15.6h-3.1v-15.6h-2.1v-2.6h2.1v-0.6c0-2.2,0.5-3.8,1.6-5c1.1-1.2,2.6-1.7,4.7-1.7
		c0.7,0,1.3,0,1.8,0.1c0.6,0.1,1.1,0.1,1.5,0.2L114.4,214.2z"/>
</g>
<g id="text1235-1" transform="matrix(1.2551077,0,0,1.2551077,-125.91301,-145.41286)">
	<path id="path1363" d="M316.1,226.8c0,1.5-0.2,2.9-0.7,4.1c-0.4,1.2-1,2.2-1.7,3.1c-0.8,0.9-1.6,1.5-2.5,1.9
		c-0.9,0.4-1.9,0.6-3,0.6c-1,0-1.9-0.1-2.7-0.4c-0.8-0.2-1.5-0.6-2.3-1L303,236h-2.9v-25.3h3.1v9c0.9-0.7,1.8-1.3,2.7-1.7
		c1-0.5,2-0.7,3.3-0.7c2.1,0,3.8,0.8,5.1,2.5C315.5,221.5,316.1,223.8,316.1,226.8L316.1,226.8z M313,226.9c0-2.2-0.4-3.8-1.1-4.9
		c-0.7-1.1-1.9-1.7-3.5-1.7c-0.9,0-1.8,0.2-2.7,0.6c-0.9,0.4-1.8,0.9-2.5,1.5v10.4c0.9,0.4,1.6,0.7,2.2,0.8c0.6,0.2,1.3,0.2,2.1,0.2
		c1.7,0,3-0.6,4-1.7C312.5,231,313,229.2,313,226.9L313,226.9z"/>
</g>
<g id="text1235-2" transform="matrix(1.2551077,0,0,1.2551077,-125.91301,-145.41286)">
	<path id="path1366" d="M315.5,391.6c-1,0.5-2,0.9-2.9,1.1c-0.9,0.3-1.9,0.4-2.9,0.4c-1.3,0-2.5-0.2-3.6-0.6c-1.1-0.4-2-1-2.8-1.8
		c-0.8-0.8-1.4-1.8-1.8-3c-0.4-1.2-0.7-2.6-0.7-4.2c0-3,0.8-5.3,2.4-7c1.6-1.7,3.8-2.5,6.5-2.5c1,0,2.1,0.1,3.1,0.4
		c1,0.3,1.9,0.7,2.8,1.1v3.4h-0.2c-0.9-0.7-1.9-1.3-2.9-1.7c-1-0.4-2-0.6-2.9-0.6c-1.7,0-3.1,0.6-4.1,1.8c-1,1.2-1.5,2.9-1.5,5.1
		c0,2.2,0.5,3.9,1.5,5.1c1,1.2,2.4,1.8,4.1,1.8c0.6,0,1.2-0.1,1.9-0.2c0.6-0.2,1.2-0.4,1.7-0.6c0.4-0.2,0.9-0.5,1.3-0.7
		c0.4-0.3,0.7-0.5,0.9-0.7h0.2L315.5,391.6z"/>
</g>
<g id="text1235-3" transform="matrix(1.2551077,0,0,1.2551077,-125.91301,-145.41286)">
	<path id="path1369" d="M116.8,384h-13.4c0,1.1,0.2,2.1,0.5,2.9c0.3,0.8,0.8,1.5,1.4,2c0.6,0.5,1.2,0.9,2,1.2
		c0.8,0.3,1.6,0.4,2.6,0.4c1.2,0,2.5-0.2,3.7-0.7c1.3-0.5,2.2-1,2.7-1.5h0.2v3.3c-1,0.4-2.1,0.8-3.2,1.1c-1.1,0.3-2.2,0.4-3.4,0.4
		c-3,0-5.4-0.8-7.1-2.4c-1.7-1.6-2.5-4-2.5-7c0-3,0.8-5.3,2.4-7.1c1.6-1.7,3.8-2.6,6.4-2.6c2.5,0,4.3,0.7,5.7,2.1
		c1.3,1.4,2,3.5,2,6.1L116.8,384z M113.8,381.7c0-1.6-0.4-2.8-1.2-3.7c-0.8-0.9-2-1.3-3.6-1.3c-1.6,0-2.9,0.5-3.9,1.4
		c-1,1-1.5,2.2-1.6,3.6L113.8,381.7z"/>
</g>
<g id="text1235-6" transform="matrix(1.2551077,0,0,1.2551077,-125.91301,-145.41286)">
	<path id="path1372" d="M215.1,499.4H212v-1.9c-0.9,0.8-1.8,1.3-2.7,1.8c-1,0.4-2,0.6-3.1,0.6c-2.2,0-3.9-0.8-5.2-2.5
		c-1.3-1.7-1.9-4-1.9-6.9c0-1.5,0.2-2.9,0.7-4.1c0.4-1.2,1-2.2,1.8-3.1c0.7-0.8,1.6-1.5,2.6-1.9c1-0.4,2-0.7,3.1-0.7
		c1,0,1.8,0.1,2.5,0.3c0.7,0.2,1.5,0.5,2.3,0.9v-7.9h3.1L215.1,499.4z M212,495v-10.4c-0.8-0.4-1.6-0.6-2.2-0.8
		c-0.7-0.1-1.4-0.2-2.1-0.2c-1.7,0-3,0.6-4,1.8c-1,1.2-1.4,2.9-1.4,5.1c0,2.2,0.4,3.8,1.1,4.9c0.7,1.1,1.9,1.7,3.5,1.7
		c0.9,0,1.7-0.2,2.6-0.6C210.4,496.1,211.3,495.6,212,495L212,495z"/>
</g>
<path id="rect847_00000063635728457173578370000003607179436455186603_" class="st1" d="M781.3,52.8h14.5v175.8h-14.5V52.8z"/>
<path id="rect847-2_00000039127244666018616050000014477854321584950942_" class="st1" d="M981.8,52.8h14.5v175.8h-14.5L981.8,52.8z
	"/>
<path id="rect847-0_00000096058709707558472180000013987718667022570913_" class="st1" d="M981.8,253.4h14.5v175.8h-14.5
	L981.8,253.4z"/>
<path id="rect847-28_00000081611428251901134490000010050086403932546455_" class="st1" d="M781.3,253.4h14.5v175.8h-14.5V253.4z"/>
<path id="rect847-8_00000120541545892949768020000000538921258831318174_" class="st1" d="M800.9,47.8V33.3h175.8v14.5H800.9z"/>
<path id="rect847-03_00000015313682732515378890000006099466233704482211_" class="st0" d="M881.6,53h14.5v175.8h-14.5V53z"/>
<path id="rect847-83_00000005959305803420896590000001468354298127348914_" class="st0" d="M881.6,252h14.5v175.8h-14.5V252z"/>
<path id="rect847-8-3_00000110445184493153893610000002246407095416696450_" class="st1" d="M800.9,448.7v-14.5h175.8v14.5H800.9z"
	/>
<path id="rect847-8-9_00000036957342796332986520000007931607689280055989_" class="st0" d="M801.2,248.2v-14.5h75v14.5H801.2z"/>
<path id="rect847-8-9-0_00000025425420113989570980000003039290024313514427_" class="st2" d="M901.4,248.2v-14.5h75v14.5H901.4z"/>
<path id="rect847-8-35_00000049940694298375354270000017075982671721154715_" class="st0" d="M803.1,60l13.7-4.7l57.5,166.2
	l-13.7,4.7L803.1,60z"/>
<path id="rect847-8-35-0_00000132787977190471397720000005884916545180051368_" class="st2" d="M974.5,60l-13.7-4.7l-57.5,166.2
	l13.7,4.7L974.5,60z"/>
<path id="rect847-8-35-5_00000125575447370428674460000004290634393897120154_" class="st0" d="M803.1,421.9l13.7,4.7l57.5-166.2
	l-13.7-4.7L803.1,421.9z"/>
<path id="rect847-8-35-0-3_00000005945849068800932550000010374724959148375171_" class="st1" d="M974.5,421.9l-13.7,4.7
	l-57.5-166.2l13.7-4.7L974.5,421.9z"/>
<g>
	<g>
		<line class="st3" x1="282.7" y1="237.3" x2="687.9" y2="237.3"/>
		<g>
			<path d="M736.2,237.3c-22.7,8.4-50.9,22.8-68.4,38l13.8-38l-13.8-38C685.3,214.5,713.5,228.8,736.2,237.3z"/>
		</g>
	</g>
</g>
<text transform="matrix(1 0 0 1 334.7359 140.6991)"><tspan x="0" y="0" class="st4 st5">a, b, c, d, e, </tspan><tspan x="0" y="72" class="st4 st5">f, mを点灯</tspan></text>
<g id="text1083-6_00000083053632399070850200000018114316248714622877_" transform="matrix(1.2551077,0,0,1.2551077,-125.91301,-145.41286)">
	<path id="path1329_00000082370740467110191990000006695195277700408766_" d="M770.4,444.3h-1.9l-3.4-3.7l-0.9,0.9v2.8h-1.4v-11.9
		h1.4v7.6l4.1-4.3h1.8l-4,3.9L770.4,444.3z"/>
</g>
<g id="text1083-6-9_00000083789520498893890890000004622498642400060584_" transform="matrix(1.2551077,0,0,1.2551077,-125.91301,-145.41286)">
	<path id="path1332_00000102543480864175288770000005067835044032180895_" d="M819.1,444.3h-1.4v-11.9h1.4V444.3z"/>
</g>
<g id="text1083-6-6_00000015340237724067331610000004476199846395466671_" transform="matrix(1.2551077,0,0,1.2551077,-125.91301,-145.41286)">
	<path id="path1335_00000007421337975841006160000003279117038789994902_" d="M853.5,444.3h-1.4v-4.9c0-0.4,0-0.7-0.1-1.1
		c0-0.3-0.1-0.6-0.2-0.8c-0.1-0.2-0.3-0.4-0.5-0.5c-0.2-0.1-0.5-0.2-0.9-0.2c-0.4,0-0.8,0.1-1.2,0.3c-0.4,0.2-0.8,0.5-1.2,0.8
		c0,0.1,0,0.3,0,0.4c0,0.2,0,0.3,0,0.5v5.5h-1.4v-4.9c0-0.4,0-0.7-0.1-1.1c0-0.3-0.1-0.6-0.2-0.8c-0.1-0.2-0.3-0.4-0.5-0.5
		c-0.2-0.1-0.5-0.2-0.9-0.2c-0.4,0-0.8,0.1-1.2,0.3c-0.4,0.2-0.8,0.4-1.2,0.7v6.4h-1.4v-8.5h1.4v0.9c0.4-0.4,0.9-0.7,1.3-0.9
		c0.4-0.2,0.9-0.3,1.4-0.3c0.6,0,1.1,0.1,1.5,0.4c0.4,0.2,0.7,0.6,0.9,1c0.6-0.5,1.1-0.8,1.6-1.1c0.5-0.2,1-0.3,1.5-0.3
		c0.9,0,1.6,0.3,2.1,0.9c0.4,0.6,0.7,1.4,0.7,2.4L853.5,444.3z"/>
</g>
<g id="text1083-6-8_00000142135427443919386390000005444291955982002330_" transform="matrix(1.2551077,0,0,1.2551077,-125.91301,-145.41286)">
	<path id="path1338_00000155144958711582490430000000144824200164326785_" d="M771.3,187.3h-1.4v-4.9c0-0.4,0-0.8-0.1-1.1
		c0-0.3-0.1-0.6-0.3-0.8c-0.1-0.2-0.3-0.4-0.5-0.5c-0.2-0.1-0.5-0.2-0.9-0.2c-0.4,0-0.8,0.1-1.2,0.3s-0.8,0.4-1.2,0.7v6.4h-1.4
		v-11.9h1.4v4.3c0.4-0.4,0.9-0.7,1.4-0.9c0.5-0.2,1-0.3,1.5-0.3c0.9,0,1.6,0.3,2.1,0.8s0.7,1.4,0.7,2.4L771.3,187.3z"/>
</g>
<g id="text1083-6-9-6_00000085940978276655512890000012974744030079944097_" transform="matrix(1.2551077,0,0,1.2551077,-125.91301,-145.41286)">
	<path id="path1341_00000121276263299015377940000018289137457922772360_" d="M820.7,177.3H819v-1.5h1.6V177.3z M820.6,187.3h-1.4
		v-8.5h1.4V187.3z"/>
</g>
<g id="text1083-6-6-1_00000142889668126444362930000002412378141352654009_" transform="matrix(1.2551077,0,0,1.2551077,-125.91301,-145.41286)">
	<path id="path1344_00000152943344132704221010000009175907062367080363_" d="M851.7,177.3h-1.6v-1.5h1.6V177.3z M851.6,187.5
		c0,1-0.3,1.8-0.8,2.3c-0.5,0.5-1.2,0.8-2,0.8c-0.2,0-0.5,0-0.8-0.1c-0.3,0-0.6-0.1-0.8-0.2V189h0.1c0.1,0.1,0.3,0.1,0.6,0.2
		c0.2,0.1,0.5,0.1,0.7,0.1c0.4,0,0.7-0.1,0.9-0.2c0.2-0.1,0.4-0.3,0.5-0.5c0.1-0.2,0.2-0.5,0.2-0.7c0-0.3,0.1-0.6,0.1-1V180h-1.8
		v-1.2h3.2L851.6,187.5z"/>
</g>
<g id="text1083-6-6-1-2_00000114795097723219425580000014048926958529339777_" transform="matrix(1.2551077,0,0,1.2551077,-125.91301,-145.41286)">
	<path id="path1347_00000005234729222979340350000013605801455843915689_" d="M753.4,293.4c0,1.4-0.3,2.5-1,3.2c-0.7,0.7-1.7,1-3,1
		c-0.5,0-0.9,0-1.3-0.1c-0.4-0.1-0.9-0.2-1.3-0.3v-1.5h0.1c0.2,0.1,0.6,0.2,1.1,0.3c0.5,0.1,1,0.2,1.5,0.2c0.5,0,0.9-0.1,1.2-0.2
		s0.6-0.3,0.7-0.5c0.2-0.2,0.3-0.4,0.4-0.7c0.1-0.3,0.1-0.6,0.1-0.9v-0.8c-0.4,0.3-0.8,0.6-1.2,0.8c-0.4,0.2-0.9,0.3-1.5,0.3
		c-1,0-1.8-0.4-2.4-1.1c-0.6-0.7-0.9-1.8-0.9-3.1c0-0.7,0.1-1.4,0.3-1.9c0.2-0.5,0.5-1,0.8-1.4c0.3-0.4,0.7-0.6,1.2-0.8
		c0.5-0.2,0.9-0.3,1.4-0.3c0.5,0,0.9,0.1,1.2,0.2c0.3,0.1,0.7,0.2,1.1,0.5l0.1-0.4h1.3L753.4,293.4z M751.9,292.1v-4.7
		c-0.4-0.2-0.7-0.3-1.1-0.4c-0.3-0.1-0.7-0.1-1-0.1c-0.8,0-1.4,0.3-1.9,0.8s-0.7,1.3-0.7,2.3c0,1,0.2,1.7,0.5,2.2
		c0.3,0.5,0.9,0.7,1.7,0.7c0.4,0,0.8-0.1,1.3-0.2C751.2,292.5,751.6,292.3,751.9,292.1L751.9,292.1z"/>
	<path id="path1349_00000111896662451835385560000013199188721727731635_" d="M763.1,294.4h-6.2v-1.2h2.4v-7.6h-2.4v-1
		c0.3,0,0.7,0,1-0.1c0.4-0.1,0.6-0.1,0.8-0.2c0.2-0.1,0.4-0.3,0.5-0.5c0.1-0.2,0.2-0.5,0.2-0.8h1.2v10.3h2.3L763.1,294.4z"/>
</g>
<g id="text1083-6-6-1-2-2_00000093147787624156491340000004528409806373501089_" transform="matrix(1.2551077,0,0,1.2551077,-125.91301,-145.41286)">
	<path id="path1352_00000101809799517877239010000005537402876916843421_" d="M860.3,293.4c0,1.4-0.3,2.5-1,3.2c-0.7,0.7-1.7,1-3,1
		c-0.5,0-0.9,0-1.3-0.1c-0.4-0.1-0.9-0.2-1.3-0.3v-1.5h0.1c0.2,0.1,0.6,0.2,1.1,0.3c0.5,0.1,1,0.2,1.5,0.2c0.5,0,0.9-0.1,1.2-0.2
		c0.3-0.1,0.6-0.3,0.7-0.5c0.2-0.2,0.3-0.4,0.4-0.7c0.1-0.3,0.1-0.6,0.1-0.9v-0.8c-0.4,0.3-0.8,0.6-1.2,0.8
		c-0.4,0.2-0.9,0.3-1.5,0.3c-1,0-1.8-0.4-2.4-1.1c-0.6-0.7-0.9-1.8-0.9-3.1c0-0.7,0.1-1.4,0.3-1.9c0.2-0.5,0.5-1,0.8-1.4
		c0.3-0.4,0.7-0.6,1.2-0.8c0.5-0.2,0.9-0.3,1.4-0.3c0.5,0,0.9,0.1,1.2,0.2c0.3,0.1,0.7,0.2,1.1,0.5l0.1-0.4h1.3L860.3,293.4z
		 M858.9,292.1v-4.7c-0.4-0.2-0.7-0.3-1.1-0.4c-0.3-0.1-0.7-0.1-1-0.1c-0.8,0-1.4,0.3-1.9,0.8c-0.5,0.5-0.7,1.3-0.7,2.3
		c0,1,0.2,1.7,0.5,2.2c0.3,0.5,0.9,0.7,1.7,0.7c0.4,0,0.8-0.1,1.3-0.2C858.1,292.5,858.5,292.3,858.9,292.1L858.9,292.1z"/>
	<path id="path1354_00000102538561070771519240000011823080713735384244_" d="M870.7,294.4H863v-1.6c0.5-0.5,1.1-0.9,1.6-1.4
		c0.5-0.5,1-0.9,1.5-1.4c1-0.9,1.6-1.7,2-2.3c0.4-0.6,0.5-1.2,0.5-1.8c0-0.6-0.2-1.1-0.6-1.4c-0.4-0.3-0.9-0.5-1.6-0.5
		c-0.5,0-1,0.1-1.5,0.2c-0.5,0.2-1.1,0.4-1.6,0.7h-0.1v-1.6c0.4-0.2,0.8-0.3,1.4-0.5c0.6-0.1,1.2-0.2,1.8-0.2c1.2,0,2.1,0.3,2.7,0.8
		c0.7,0.6,1,1.3,1,2.3c0,0.4-0.1,0.8-0.2,1.2c-0.1,0.4-0.3,0.7-0.5,1.1c-0.2,0.3-0.4,0.6-0.7,0.9c-0.3,0.3-0.6,0.6-1,1
		c-0.5,0.5-1.1,1.1-1.7,1.6c-0.6,0.5-1.1,1-1.6,1.4h6.1L870.7,294.4z"/>
</g>
<g id="text1235_00000132775382413823120720000014357691314959443081_" transform="matrix(1.2551077,0,0,1.2551077,-125.91301,-145.41286)">
	<path id="path1357_00000139276365204959662160000006235902525193950853_" d="M815.7,134.5h-3v-1.9c-0.3,0.2-0.6,0.4-1.1,0.8
		c-0.5,0.3-0.9,0.6-1.3,0.8c-0.5,0.2-1.1,0.5-1.8,0.6c-0.7,0.2-1.4,0.3-2.3,0.3c-1.6,0-3-0.5-4.2-1.6c-1.1-1.1-1.7-2.5-1.7-4.1
		c0-1.4,0.3-2.5,0.9-3.3c0.6-0.9,1.4-1.5,2.5-2c1.1-0.5,2.4-0.8,4-1c1.6-0.2,3.2-0.3,5-0.4V122c0-0.7-0.1-1.3-0.4-1.7
		c-0.2-0.5-0.6-0.8-1-1.1c-0.4-0.2-1-0.4-1.6-0.5c-0.6-0.1-1.2-0.1-1.9-0.1c-0.8,0-1.7,0.1-2.7,0.3c-1,0.2-2,0.5-3.1,0.9h-0.2v-3.1
		c0.6-0.2,1.5-0.3,2.6-0.5c1.1-0.2,2.2-0.3,3.3-0.3c1.3,0,2.4,0.1,3.3,0.3c1,0.2,1.8,0.6,2.5,1.1c0.7,0.5,1.2,1.1,1.6,1.9
		c0.4,0.8,0.5,1.8,0.5,2.9L815.7,134.5z M812.7,130v-5.1c-0.9,0.1-2,0.1-3.3,0.2c-1.3,0.1-2.3,0.3-3,0.5c-0.9,0.2-1.6,0.6-2.1,1.2
		c-0.5,0.5-0.8,1.2-0.8,2.2c0,1,0.3,1.8,0.9,2.4c0.6,0.5,1.6,0.8,2.9,0.8c1.1,0,2.1-0.2,2.9-0.6C811.1,131.1,811.9,130.6,812.7,130
		L812.7,130z"/>
</g>
<g id="text1235-8_00000142892715151818564020000008295565755035928464_" transform="matrix(1.2551077,0,0,1.2551077,-125.91301,-145.41286)">
	<path id="path1360_00000000920509227110626440000005897251041532573365_" d="M714.7,214.2h-0.2c-0.3-0.1-0.8-0.2-1.3-0.3
		c-0.5-0.1-1-0.2-1.4-0.2c-1.3,0-2.3,0.3-2.9,0.9c-0.6,0.6-0.9,1.6-0.9,3.1v0.6h5.5v2.6h-5.4v15.6H705v-15.6H703v-2.6h2.1v-0.6
		c0-2.2,0.5-3.8,1.6-5c1.1-1.2,2.6-1.7,4.7-1.7c0.7,0,1.3,0,1.8,0.1c0.6,0.1,1.1,0.1,1.5,0.2L714.7,214.2z"/>
</g>
<g id="text1235-1_00000179614311179205269020000003491959400628462223_" transform="matrix(1.2551077,0,0,1.2551077,-125.91301,-145.41286)">
	<path id="path1363_00000168101850665757545970000015740477699674314394_" d="M916.4,226.8c0,1.5-0.2,2.9-0.7,4.1
		c-0.4,1.2-1,2.2-1.7,3.1c-0.8,0.9-1.6,1.5-2.5,1.9c-0.9,0.4-1.9,0.6-3,0.6c-1,0-1.9-0.1-2.7-0.4c-0.8-0.2-1.5-0.6-2.3-1l-0.2,0.8
		h-2.9v-25.3h3.1v9c0.9-0.7,1.8-1.3,2.7-1.7c1-0.5,2-0.7,3.3-0.7c2.1,0,3.8,0.8,5.1,2.5C915.8,221.5,916.4,223.8,916.4,226.8
		L916.4,226.8z M913.2,226.9c0-2.2-0.4-3.8-1.1-4.9c-0.7-1.1-1.9-1.7-3.5-1.7c-0.9,0-1.8,0.2-2.7,0.6c-0.9,0.4-1.8,0.9-2.5,1.5v10.4
		c0.9,0.4,1.6,0.7,2.2,0.8c0.6,0.2,1.3,0.2,2.1,0.2c1.7,0,3-0.6,4-1.7C912.7,231,913.2,229.2,913.2,226.9L913.2,226.9z"/>
</g>
<g id="text1235-2_00000150102316598469140350000008233041013007270536_" transform="matrix(1.2551077,0,0,1.2551077,-125.91301,-145.41286)">
	<path id="path1366_00000052788618421462431460000013934419939435992759_" d="M915.7,391.6c-1,0.5-2,0.9-2.9,1.1
		c-0.9,0.3-1.9,0.4-2.9,0.4c-1.3,0-2.5-0.2-3.6-0.6c-1.1-0.4-2-1-2.8-1.8c-0.8-0.8-1.4-1.8-1.8-3c-0.4-1.2-0.7-2.6-0.7-4.2
		c0-3,0.8-5.3,2.4-7c1.6-1.7,3.8-2.5,6.5-2.5c1,0,2.1,0.1,3.1,0.4c1,0.3,1.9,0.7,2.8,1.1v3.4h-0.2c-0.9-0.7-1.9-1.3-2.9-1.7
		c-1-0.4-2-0.6-2.9-0.6c-1.7,0-3.1,0.6-4.1,1.8c-1,1.2-1.5,2.9-1.5,5.1c0,2.2,0.5,3.9,1.5,5.1c1,1.2,2.4,1.8,4.1,1.8
		c0.6,0,1.2-0.1,1.9-0.2c0.6-0.2,1.2-0.4,1.7-0.6c0.4-0.2,0.9-0.5,1.3-0.7c0.4-0.3,0.7-0.5,0.9-0.7h0.2L915.7,391.6z"/>
</g>
<g id="text1235-3_00000178897697780613760590000006859345591309198758_" transform="matrix(1.2551077,0,0,1.2551077,-125.91301,-145.41286)">
	<path id="path1369_00000111155234371322808550000011195801231745389984_" d="M717.1,384h-13.4c0,1.1,0.2,2.1,0.5,2.9
		c0.3,0.8,0.8,1.5,1.4,2c0.6,0.5,1.2,0.9,2,1.2c0.8,0.3,1.6,0.4,2.6,0.4c1.2,0,2.5-0.2,3.7-0.7c1.3-0.5,2.2-1,2.7-1.5h0.2v3.3
		c-1,0.4-2.1,0.8-3.2,1.1c-1.1,0.3-2.2,0.4-3.4,0.4c-3,0-5.4-0.8-7.1-2.4c-1.7-1.6-2.5-4-2.5-7c0-3,0.8-5.3,2.4-7.1
		c1.6-1.7,3.8-2.6,6.4-2.6c2.5,0,4.3,0.7,5.7,2.1c1.3,1.4,2,3.5,2,6.1L717.1,384z M714.1,381.7c0-1.6-0.4-2.8-1.2-3.7
		c-0.8-0.9-2-1.3-3.6-1.3c-1.6,0-2.9,0.5-3.9,1.4c-1,1-1.5,2.2-1.6,3.6L714.1,381.7z"/>
</g>
<g id="text1235-6_00000091735241357015194400000001269711757927473823_" transform="matrix(1.2551077,0,0,1.2551077,-125.91301,-145.41286)">
	<path id="path1372_00000177478587283103983600000001528915635272149943_" d="M815.3,499.4h-3.1v-1.9c-0.9,0.8-1.8,1.3-2.7,1.8
		c-1,0.4-2,0.6-3.1,0.6c-2.2,0-3.9-0.8-5.2-2.5c-1.3-1.7-1.9-4-1.9-6.9c0-1.5,0.2-2.9,0.7-4.1c0.4-1.2,1-2.2,1.8-3.1
		c0.7-0.8,1.6-1.5,2.6-1.9c1-0.4,2-0.7,3.1-0.7c1,0,1.8,0.1,2.5,0.3c0.7,0.2,1.5,0.5,2.3,0.9v-7.9h3.1L815.3,499.4z M812.3,495
		v-10.4c-0.8-0.4-1.6-0.6-2.2-0.8c-0.7-0.1-1.4-0.2-2.1-0.2c-1.7,0-3,0.6-4,1.8c-1,1.2-1.4,2.9-1.4,5.1c0,2.2,0.4,3.8,1.1,4.9
		c0.7,1.1,1.9,1.7,3.5,1.7c0.9,0,1.7-0.2,2.6-0.6C810.7,496.1,811.5,495.6,812.3,495L812.3,495z"/>
</g>
</svg>
