<?xml version="1.0" encoding="utf-8"?>
<!-- Generator: Adobe Illustrator 25.2.3, SVG Export Plug-In . SVG Version: 6.00 Build 0)  -->
<svg version="1.1" id="レイヤー_1" xmlns="http://www.w3.org/2000/svg" xmlns:xlink="http://www.w3.org/1999/xlink" x="0px"
	 y="0px" viewBox="0 0 1392.1 165.7" style="enable-background:new 0 0 1392.1 165.7;" xml:space="preserve">
<style type="text/css">
	.st0{fill:#FFFFFF;}
	.st1{fill:#002C76;}
</style>
<rect class="st0" width="1392.1" height="165.7"/>
<g>
	<polygon class="st1" points="0,0 0,60.8 60.8,60.8 121.5,121.5 121.5,60.8 182.3,60.8 182.3,0 	"/>
	<polygon class="st1" points="60.8,165.6 121.5,165.6 60.8,104.8 	"/>
</g>
<g>
	<path d="M255.7,10.5V7.6H239V3.7h-2.9v3.9h-16.7v2.9h16.7v3.4h-13.9v15.3h11.5L220,39.7l1.7,2.3l14.4-11.1V42h2.9V30.9L253.4,42
		l1.7-2.3l-13.7-10.6h11.5V13.8H239v-3.4h16.7V10.5z M225.1,16.7h11V20h-11V16.7z M225.1,22.9h11v3.4h-11V22.9z M250,26.3h-11v-3.4
		h11V26.3z M250,16.7V20h-11v-3.4h11V16.7z"/>
	<g>
		<path d="M338.7,42h-31.2V6.3h31.2V42z M310.4,39.1h25.5v-30h-25.5V39.1z"/>
		<polygon points="333,14.8 333,11.9 313.2,11.9 313.2,14.8 321.7,14.8 321.7,22.6 314.2,22.6 314.2,25.5 321.7,25.5 321.7,33.3 
			313.2,33.3 313.2,36.2 333,36.2 333,33.3 324.5,33.3 324.5,25.5 332,25.5 332,22.6 324.5,22.6 324.5,14.8 		"/>
		<rect x="328" y="26.8" transform="matrix(0.9075 -0.4201 0.4201 0.9075 18.108 141.1286)" width="2.9" height="5.3"/>
	</g>
	<g>
		<polygon points="379.8,11.9 364.8,11.9 364.8,3.6 361.9,3.6 361.9,11.9 346.9,11.9 346.9,14.8 379.8,14.8 		"/>
		<rect x="345.6" y="39.1" width="35.5" height="2.9"/>
		<rect x="354.2" y="17.7" width="2.9" height="18.6"/>
		<rect x="369.7" y="17.7" width="2.9" height="18.6"/>
	</g>
	<polygon points="423.5,14.8 423.5,11.9 406.8,11.9 406.8,3.6 406.8,3.6 403.9,3.6 403.9,3.6 403.9,11.9 387.2,11.9 387.2,14.8 
		403.9,14.8 403.9,19.9 387.7,40.2 390,42 405.4,22.7 420.8,42 423,40.2 406.8,19.9 406.8,14.8 	"/>
	<g>
		<polygon points="432.6,13.8 459.9,13.8 459.9,19.9 462.8,19.9 462.8,10.9 456.4,10.9 460,5.1 457.6,3.6 453.1,10.9 429.7,10.9 
			429.7,19.9 432.6,19.9 		"/>
		<rect x="434.2" y="3.9" transform="matrix(0.8274 -0.5616 0.5616 0.8274 71.4017 245.8319)" width="2.9" height="5.7"/>
		<rect x="443.9" y="3.9" transform="matrix(0.8274 -0.5616 0.5616 0.8274 73.0765 251.2801)" width="2.9" height="5.7"/>
		<path d="M447.7,28.9v-1.5l9.4-6.4v-3h-21.6v2.9H452l0,0l-7.2,4.9v3.1h-16.5v2.9h16.5v6.4c0,0,0,0.7-0.4,1.2
			c-0.3,0.3-0.7,0.4-1.3,0.4h-2.5v2.9h2.5c1.8,0,2.8-0.7,3.4-1.3c1.2-1.2,1.2-2.9,1.1-3.3v-6.3l0,0h16.5v-2.9
			C464.1,28.9,447.7,28.9,447.7,28.9z"/>
	</g>
	<g>
		<rect x="263.8" y="7.6" width="7.4" height="2.9"/>
		<rect x="263.8" y="18.2" width="7.4" height="2.9"/>
		<rect x="259.9" y="33.6" transform="matrix(0.4971 -0.8677 0.8677 0.4971 103.8725 249.3592)" width="14.3" height="2.9"/>
		<polygon points="298.2,7.6 276.7,7.6 277.6,3.6 274.8,3 272.4,14.1 275.2,14.7 276.1,10.5 298.2,10.5 		"/>
		<path d="M300.4,24.3h-3.9v-9.5h-20.3v9.5h-4.1v2.9h4.1v9.5h17.5l0,0v1.6c0,0,0,0.7-0.4,1.2c-0.3,0.3-0.7,0.4-1.3,0.4h-2.5v2.9h2.5
			c1.8,0,2.8-0.7,3.4-1.3c1-1.1,1.1-2.6,1.1-3.1l0,0v-11h3.9L300.4,24.3L300.4,24.3z M293.7,17.7v6.6h-6v-6.6H293.7z M279.1,17.7
			h5.8v6.6h-5.8V17.7z M279.1,33.7v-6.6h5.8v6.6H279.1z M293.7,33.7h-6v-6.6h6V33.7z"/>
	</g>
	<g>
		<polygon points="489.1,21.7 489.1,23.3 491.8,23.3 491.8,17.1 489.1,17.1 489.1,19 485.3,19.2 491.8,10.9 489.7,9.2 487,12.7 
			485.3,11.4 489.8,5.5 487.6,3.9 481.6,11.8 485.3,14.8 481.5,19.6 482.6,21.8 		"/>
		<polygon points="504.7,21.7 504.7,23.3 507.4,23.3 507.4,17.1 504.7,17.1 504.7,19 500.9,19.2 507.3,10.9 505.2,9.2 502.5,12.7 
			500.9,11.4 505.3,5.5 503.2,3.9 497.1,11.8 500.9,14.8 497.1,19.6 498.2,21.8 		"/>
		<path d="M505.6,36.9l-1.5,1.9l-0.1-0.1c-0.9-0.9-1.8-2-2.6-3.2v-0.1v-0.1c1-1.2,1.9-2.6,2.6-4.1c-0.7-0.3-1.8-0.9-2.4-1.2
			c-0.4,0.9-1,1.7-1.5,2.5l-0.1,0.1l-0.1-0.1c-0.5-1.1-1-2.3-1.4-3.5v-0.1h8.9v-2.7h-2.8l-2.3-3.6l-2.3,1.5l1.4,2.1h-3.7v-0.1
			c-1.9-7.3-2.2-15.8-2.3-22.2h-2.7c0.1,6.2,0.4,14.7,2.2,22.2v0.1h-11.7v16.2h2.7v-7.9l4.9,2.7l1.3-2.4l-6.2-3.4v-2.5h9.7V29
			c0.7,2.2,1.5,4.1,2.4,5.9V35l0,0c-2,2-4.4,3.7-7.5,5l1.1,2.5c3.1-1.3,5.6-3,7.8-5l0.1-0.1l0.1,0.1c1.1,1.7,2.4,3.1,3.8,4.2
			l1.1,0.8l3.3-4.1L505.6,36.9z"/>
		<polygon points="471.3,14.8 471.3,12.1 475.1,12.1 475.1,4.4 477.8,4.4 477.8,12.1 480.9,12.1 480.9,14.8 477.8,14.8 477.8,16.7 
			481.8,25.4 479.4,26.5 477.8,23.1 477.8,42.6 475.1,42.6 475.1,23.1 471.3,31.5 468.9,30.4 475.1,16.7 475.1,14.8 		"/>
	</g>
	<g>
		<path d="M550.6,35.8v-2.7h-2.7V22.9h-8.4v-3h9.4v-2.7h-4.7v-2.4h3.4v-2.7h-3.4V9.7h4.7V7.1h-4.7V4.4h-2.7v2.7h-6.7V4.4h-2.7v2.7
			h-5.3v2.7h5.3v2.4h-4v2.7h4v2.4h-5.3V20h9.9v3h-8.4v10.2h-2.7v2.7h2.7v6.8h2.7v-6.8h14.1v2.4c0,0,0,0.8-0.4,1.2
			c-0.3,0.3-0.7,0.4-1.4,0.4H541v2.7h2.4c1.8,0,2.8-0.7,3.3-1.3c1.1-1.2,1.1-2.7,1.1-3.2v-2.3C547.8,35.8,550.6,35.8,550.6,35.8z
			 M536.8,33.1h-5.7v-2.4h5.7V33.1z M536.8,28h-5.7v-2.4h5.7V28z M534.8,9.7h6.7v2.4h-6.7V9.7z M534.8,17.3v-2.4h6.7v2.4H534.8z
			 M545.2,33.1h-5.8v-2.4h5.8V33.1z M545.2,28h-5.8v-2.4h5.8V28z"/>
		<polygon points="514.9,14.8 514.9,12.1 518.7,12.1 518.7,4.4 521.4,4.4 521.4,12.1 524.5,12.1 524.5,14.8 521.4,14.8 521.4,16.7 
			525.4,25.4 523,26.5 521.4,23.1 521.4,42.6 518.7,42.6 518.7,23.1 514.9,31.5 512.4,30.4 518.7,16.7 518.7,14.8 		"/>
	</g>
</g>
<g>
	<path class="st1" d="M268.6,95.5c0,1.9,0,4.4-0.1,6.2c5.6-4.4,11.9-10,16-14.6h-47.6L216,87.5l-0.8-1V70.8l1.1-0.7l20.3,0.4H290
		l12-0.6l8.4,11.3c0.4,0.6,0.6,1.1,0.6,1.7c0,0.7-0.2,1.4-1,2.3c-6,7.3-16.6,18.1-26.4,26.9c-1.9,1.7-2.5,1.7-4.3,0.5l-11-7.4
		c-1.2,25.8-8,42.8-28.7,58.1c-0.8,0.6-1.4,0.8-2.2,0.8s-1.6-0.4-2.6-1l-16-8.2c25.1-14.4,30.1-29.8,29.6-59.2l0.8-1h18.5
		L268.6,95.5z"/>
	<path class="st1" d="M378.6,100.4c-1.6,10.4-4.2,19-8.4,26.8c-8.5,16-19.9,25.7-34.2,33.6c-0.6,0.4-1.1,0.6-1.4,0.6
		c-0.6,0-1.1-0.4-2.3-1.2l-13.6-10.1c15.7-7.8,26.5-16.7,33.6-30.1c2.9-5.5,5-11.9,6.4-19.6h-11l-17.2,0.4l-0.8-1V84.1l1.1-0.7
		l16.8,0.4h13.1c0.2-5.4,0.5-11.4,0.5-18.2l0.8-1h18l0.8,0.8c0,6.7-0.1,12.8-0.5,18.4h20l14.8-0.4l0.8,1.1
		c-0.8,19.3-2.9,42-5.2,51.6c-3.7,15.8-7.2,23-28.9,23c-3.1,0-3.2-0.2-4.1-2.2l-7.1-16.8c4.7,0.2,9,0.4,13.3,0.2
		c3.7-0.1,6.1-0.8,8.4-10.4c1.6-6.6,2.9-18.8,3.4-29.5C395.7,100.4,378.6,100.4,378.6,100.4z"/>
	<path class="st1" d="M451.1,112.1l-18.1,0.4l-0.8-1V96.2l1-0.8l17.9,0.4h56.6l16.9-0.4l1,0.8v15.2l-0.8,1l-17-0.4H491
		c-0.8,16.2-7.4,32-19.3,43.3c-4.1,3.8-8.6,6.8-13.6,9.7c-1,0.5-1.4,0.7-2,0.7s-1.3-0.4-2.5-1.2l-15.2-9.5c19-7.2,31.4-21.2,33-43.1
		h-20.3V112.1z M493.5,85.5h-31.2l-16,0.4l-0.8-1V69.5l1.1-0.7l14.8,0.4h32l16.3-0.4l1,0.8V85l-0.8,1L493.5,85.5z M509.4,63.2l7.1-3
		l1.2,0.1c3.6,4.6,6.8,9.5,9.4,15l-0.4,1.1l-7.4,3.2l-1.2-0.2c-2.6-5.6-5-10.2-8.9-15.1L509.4,63.2z M522,58.2l7-3.1l1.2,0.1
		c3.6,4.6,6.5,9.1,9,14.6l-0.4,1.1l-7,3.2l-1.2-0.2c-2.6-5.6-5-9.7-8.9-14.8L522,58.2z"/>
	<path class="st1" d="M560.3,90.3c6.6,5.8,18.6,12.2,29.4,15.7l0.5,1.2l-8.4,15.8l-1.3,0.4c-11.5-4.4-22.9-10.6-31.1-18.8v-1.2
		l9.8-13.1C559.2,90.3,560.3,90.3,560.3,90.3z M561.6,130.2c11,7.6,25.4,12.7,44.4,16.6l0.5,0.8l-8,17.5l-1.2,0.5
		c-17.8-4.1-35.8-11.9-47.2-20.2l-0.1-1.2l10.4-13.8L561.6,130.2z M572.9,62.6c11.8,3.7,22.7,8.5,33.2,14.4v1.2l-10.4,14.5l-1.2,0.4
		c-10.6-6.6-22-11.9-33.5-15.8l-0.1-1l10.8-13.6L572.9,62.6z"/>
	<path class="st1" d="M635.1,98.4c4.4,5.5,8.2,12.4,10.9,19.6l-0.5,1.1l-13,6l-1.1-0.4c-2.8-7.2-5.9-13.8-10.6-19.8l0.5-1l12.6-5.5
		C633.9,98.4,635.1,98.4,635.1,98.4z M693.9,99.9c-4.9,17.8-9.1,26.5-16.7,37.4c-7.8,11.3-16.7,18.5-29.4,26
		c-0.8,0.5-1.4,0.7-1.9,0.7c-0.6,0-1.1-0.2-1.8-0.7l-12.7-8.3c15.5-8.2,22.7-13.9,30.6-24.5c7.8-10.3,11.8-19.4,15.6-36.7l1.1-0.5
		l14.6,5.4L693.9,99.9z M657.3,92.1c4.4,5,8.2,11.4,11,18.7l-0.5,1.1l-12.7,6l-1.1-0.2c-2.9-7.3-6.5-13.6-10.8-19.3l0.4-1l12.6-5.5
		L657.3,92.1z"/>
	<path class="st1" d="M747.6,93.9c-7.3,9.6-15.1,17.8-23.9,24.8c-1.3,1-2,1.4-2.9,1.4c-0.5,0-1.1-0.2-1.9-0.7l-14.3-8.6
		c18.8-14.3,31-29.2,39.7-48.4l1.1-0.4l17.2,6.4l0.2,1.2c-1.6,3-3.1,5.8-4.9,8.6l15.4-0.2l9.1-0.7l10.4,9.7c1.1,1,1.7,1.7,1.7,2.5
		c0,0.6-0.2,1.3-0.7,2.4c-15.1,32.5-34.6,54.7-68.6,70.3c-1.6,0.6-2.4,1-3.1,1c-0.6,0-1.2-0.2-2-1l-14.9-11.5
		c26.8-8.8,52-27.8,65.4-57L747.6,93.9z"/>
	<path class="st1" d="M845.3,113.6c0,7.2-5.8,13-13,13s-13-5.8-13-13s5.8-13,13-13S845.3,106.4,845.3,113.6z"/>
	<path class="st1" d="M897.2,70.4l0.7-1h17.6l0.8,1l-0.2,22.4l25.4-7.3l11.9-4.2l10.8,10.1c1.3,1.2,1.9,1.9,1.9,2.9
		c0,0.7-0.2,1.4-0.8,2.6c-5.8,11-12.6,21.7-19.2,30.1c-1.6,1.9-2.2,2-4.7,1l-13.3-5.8c5.5-7.1,9.6-13.7,13.1-19.7L916,110l-0.2,21.4
		c0,3.4,0.2,5.2,1.2,6.4c1.3,1.7,3.8,2,10.1,2c9,0,19.1-0.7,33.2-1.8l1,0.6l0.1,16.4l-0.6,1c-11,0.8-22.1,1.4-32.8,1.4
		c-13.7,0-22.9-0.5-28.1-7c-3.4-4.1-3.2-9.5-3.2-17.4l0.1-17.4l-8.6,2.5l-15.1,4.9l-1.3-0.4l-4.6-15.1l0.5-1.2l16.2-4.3l13.1-3.7
		L897.2,70.4z"/>
	<path class="st1" d="M979.4,89.3L991,76.2l1.2-0.2c7.2,3.6,16.8,10,24.4,16.6v1.2l-12.5,14.5l-1.1,0.1c-7.2-7-15.2-12.8-23.5-18
		L979.4,89.3z M1072.4,99.2c0.4,1,0.5,1.7,0.5,2.3c0,0.8-0.4,1.3-1.2,2.2c-21.4,23.5-47.4,41-79.1,55.4l-1.2-0.2l-10.8-16.2l0.2-1.2
		c29.8-11.4,60.5-32.5,85-61.1L1072.4,99.2z"/>
	<path class="st1" d="M1114.7,117.2l0.6,45.8h-20.9l0.6-46.1V65.3l1-0.8h17.8l1,1v40.1l10.3-11.5l1.2-0.1c10,5.5,17.4,10.2,27,18.4
		l-0.1,1.2l-11.6,14.5l-1.2,0.1c-8-7.3-16-13.4-25.6-18.8v7.8L1114.7,117.2L1114.7,117.2z"/>
	<path class="st1" d="M1164.6,109.8V94.1l1.1-0.7l16.4,0.4h46.1l16.8-0.4l0.8,1c-4.2,38-22.3,58.2-55.7,69.7
		c-1.1,0.4-1.9,0.6-2.5,0.6c-1,0-1.7-0.4-2.8-1.3l-13.6-11.3c27.6-8.4,45.6-21,50.9-41.6H1182l-16.6,0.4L1164.6,109.8z M1218.5,84.6
		h-27.7l-14.6,0.4l-0.8-1V68.5l1.1-0.7l14.5,0.4h27.1l16.6-0.4l1,0.8V84l-0.8,1L1218.5,84.6z"/>
	<path class="st1" d="M1254.9,147.5c16.1-13.8,25.1-34.2,25.9-61.1l1.1-0.8l16.9,1.4l1,1c-1.3,28.6-11,50.2-25.1,65.8
		c-1.2,1.2-1.8,1.7-2.6,1.7c-0.5,0-1.1-0.1-1.9-0.6L1254.9,147.5z M1325.8,125.6c14.4-9.7,27.2-21.8,37-34.2l5.3,17.6
		c0.4,1.2,0.6,2,0.6,2.6c0,0.8-0.4,1.3-1.1,2.2c-11.6,12.8-24.7,24.2-45.4,37.3c-1.3,0.8-2,1.2-2.8,1.2c-0.6,0-1.1-0.4-1.9-1
		l-11.6-9.4l1-13.6V76.9l1-0.8h17l1,1L1325.8,125.6L1325.8,125.6z"/>
</g>
</svg>
