<?xml version="1.0" encoding="utf-8"?>
<!-- Generator: Adobe Illustrator 26.2.1, SVG Export Plug-In . SVG Version: 6.00 Build 0)  -->
<svg version="1.1" id="Layer_1" xmlns="http://www.w3.org/2000/svg" xmlns:xlink="http://www.w3.org/1999/xlink" x="0px" y="0px"
	 viewBox="0 0 850.4 566.9" style="enable-background:new 0 0 850.4 566.9;" xml:space="preserve">
<style type="text/css">
	.st0{fill:#626262;}
	.st1{fill:#FFFFFF;}
	.st2{fill-rule:evenodd;clip-rule:evenodd;fill:#FFFFFF;}
</style>
<rect y="-1" class="st0" width="850.4" height="566.9"/>
<path class="st1" d="M766.6,485.8c-13.4-4.9-27.4-9.2-41.6-11.2c-59.6-8.4-119.3-16.7-178.9-25.1c-29.5-4.1-59-8.3-88.6-12.4
	c-6.9-1-10.5-1.6-16.2,2.9c-8.6,6.6-17.2,13.3-25.8,20c-2.7-2.2-5.4-4.3-8.1-6.5c-7.4-5.9-19.5-8.5-28.4-11.2
	c-8.5-2.6-20.7-7.5-29.9-6.3c-21.1,2.9-42.2,5.8-63.3,8.8c-69.2,9.6-138.4,19.2-207.5,28.7c-2.4,0.3-4.7,0.7-7.1,1
	C67.6,475,89,484.1,91,484.8c10.5,3.5,26.3,10.4,37.8,8.8c82.3-11.4,164.7-22.8,247-34.2c7,5.6,14,11.2,21,16.8
	c7.4,5.9,19.5,8.4,28.3,11.1c5.4,1.6,25.7,10,31.1,5.7c16.2-12.5,32.4-25.1,48.5-37.6c90.4,12.7,180.8,25.4,271.2,38
	C788.2,495.2,768.3,486.4,766.6,485.8z"/>
<g>
	<path class="st1" d="M454.1,246c-3.5-3.9-5.2-9.5-5.2-16.8c0-7.3,1.7-12.9,5.2-16.8c3.5-3.9,8.5-5.8,15-5.8c6.5,0,11.5,1.9,15,5.8
		c3.5,3.9,5.2,9.5,5.2,16.8c0,7.3-1.7,12.9-5.2,16.8c-3.5,3.9-8.5,5.8-15,5.8C462.6,251.8,457.6,249.9,454.1,246z M461.4,239.9
		c1.7,2.4,4.3,3.7,7.7,3.7s5.9-1.2,7.6-3.7s2.6-6,2.6-10.7s-0.9-8.2-2.6-10.7s-4.3-3.6-7.6-3.6s-5.9,1.2-7.7,3.6
		c-1.7,2.4-2.6,6-2.6,10.7S459.7,237.4,461.4,239.9z"/>
	<path class="st1" d="M496.6,262.3v-32.9c0-3.2-0.1-5.4-0.4-6.6s-0.4-2-0.4-2.3c0-0.7,0.9-1.2,2.6-1.5c1.7-0.3,3-0.5,3.8-0.5
		s1.4,0.1,1.7,0.3c0.3,0.2,0.5,0.4,0.7,0.8c0.2,0.4,0.3,0.7,0.4,0.9s0.2,0.6,0.3,1.1c0.1,0.5,0.2,0.8,0.2,0.9
		c0.8-1.4,1.9-2.5,3.4-3.4c1.5-0.9,3.2-1.3,5.1-1.3c3.5,0,6.3,1.5,8.5,4.5s3.3,7.2,3.3,12.5c0,5.3-1.2,9.5-3.5,12.5
		c-2.3,3.1-5.6,4.6-9.8,4.6c-2.5,0-4.6-0.7-6.4-2v12.5c0,1.3-1.3,2-3.8,2h-1.8C497.8,264.4,496.6,263.7,496.6,262.3z M510.3,244.4
		c3.9,0,5.9-3.2,5.9-9.5c0-6.3-1.7-9.5-5.1-9.5c-2,0-3.7,1.2-5.2,3.7v14.1C507.3,244,508.8,244.4,510.3,244.4z"/>
	<path class="st1" d="M535,247.4c-2.7-3-4.1-7.3-4.1-12.9c0-5.6,1.4-9.8,4.1-12.6c2.7-2.8,6.4-4.2,11.2-4.2s8.2,1.5,10.4,4.6
		s3.3,7,3.3,11.8c0,0.5-0.4,1.3-1.3,2.2c-0.9,1-1.5,1.5-1.9,1.5h-16.1c0.2,2.4,0.9,4.1,2.1,5.1c1.2,1,2.8,1.5,4.7,1.5
		c1.9,0,3.7-0.3,5.4-1c1.7-0.7,2.6-1,2.7-1c0.6,0,1.3,0.6,2.1,1.9c0.8,1.2,1.2,2.2,1.2,2.9c0,1.4-1.3,2.5-3.9,3.3
		c-2.6,0.8-5.1,1.2-7.4,1.2C541.9,251.8,537.7,250.4,535,247.4z M550.8,231.5c0-1.9-0.4-3.5-1.1-4.6c-0.8-1.2-1.9-1.7-3.4-1.7
		c-3.1,0-5,2.1-5.7,6.4L550.8,231.5L550.8,231.5z"/>
	<path class="st1" d="M566.2,249.4v-20c0-3.2-0.1-5.4-0.4-6.6s-0.4-2-0.4-2.3c0-0.7,0.9-1.2,2.6-1.5c1.7-0.3,3-0.5,3.8-0.5
		s1.4,0.1,1.7,0.3c0.3,0.2,0.5,0.4,0.7,0.8c0.2,0.4,0.3,0.7,0.4,0.9c0.1,0.2,0.2,0.6,0.3,1.2c0.1,0.5,0.2,0.9,0.2,1
		c1-1.3,2.4-2.5,4-3.4c1.7-0.9,3.5-1.4,5.4-1.4c3.2,0,5.5,0.8,7,2.5c1.5,1.7,2.3,4.2,2.3,7.7v21.4c0,1.4-1.3,2-3.8,2h-1.8
		c-2.5,0-3.8-0.7-3.8-2v-20c0-2.6-1.3-3.9-3.8-3.9c-2.1,0-3.8,1.2-5,3.7v20.3c0,1.4-1.3,2-3.8,2H570
		C567.5,251.5,566.2,250.8,566.2,249.4z"/>
	<path class="st1" d="M450.4,330.8v-39.2c0-1.7,0.8-2.5,2.5-2.5H476c1.3,0,1.9,1.1,1.9,3.2v2c0,2.1-0.6,3.2-1.9,3.2h-15.9v9.2h14.2
		c1.3,0,1.9,1.1,1.9,3.2v2c0,2.1-0.6,3.2-1.9,3.2h-14.2V325h16c1.3,0,1.9,1.1,1.9,3.2v2c0,2.1-0.6,3.2-1.9,3.2h-23.2
		C451.2,333.3,450.4,332.5,450.4,330.8z"/>
	<path class="st1" d="M494.9,333.8c-3.5,0-6.3-1.5-8.5-4.5c-2.2-3-3.3-7.2-3.3-12.5c0-5.3,1.2-9.5,3.5-12.5c2.3-3.1,5.6-4.6,9.8-4.6
		c2.5,0,4.6,0.7,6.4,2v-14c0-1.4,1.3-2,3.8-2h1.8c2.5,0,3.8,0.7,3.8,2v34.5c0,2.6,0.1,4.8,0.4,6.6l0.4,2.6c0,0.7-0.9,1.2-2.6,1.5
		c-1.7,0.3-3,0.5-3.8,0.5c-0.8,0-1.4-0.1-1.7-0.3s-0.5-0.4-0.7-0.8s-0.3-0.7-0.4-0.9c-0.1-0.3-0.2-0.7-0.3-1.2s-0.2-0.9-0.2-1
		c-0.8,1.4-1.9,2.5-3.4,3.4C498.5,333.4,496.8,333.8,494.9,333.8z M497.7,326.1c2,0,3.7-1.2,5.2-3.7v-14.1c-1.4-0.8-2.9-1.2-4.4-1.2
		c-3.9,0-5.9,3.2-5.9,9.5S494.3,326.1,497.7,326.1z"/>
	<path class="st1" d="M519.8,323.6v-21.4c0-1.4,1.3-2,3.8-2h1.8c2.5,0,3.8,0.7,3.8,2v20c0,2.6,1.3,3.9,3.8,3.9c2.1,0,3.8-1.2,5-3.7
		v-20.3c0-1.4,1.3-2,3.8-2h1.8c2.5,0,3.8,0.7,3.8,2v20c0,2.6,0.1,4.8,0.4,6.6l0.4,2.6c0,0.7-0.9,1.2-2.6,1.5c-1.7,0.3-3,0.5-3.8,0.5
		c-0.8,0-1.4-0.1-1.7-0.3c-0.3-0.2-0.5-0.5-0.7-0.9s-0.3-0.7-0.4-0.9c-0.1-0.2-0.2-0.6-0.3-1.2s-0.2-0.9-0.2-1.1
		c-1,1.4-2.3,2.5-4,3.4c-1.7,0.9-3.5,1.4-5.4,1.4c-3.2,0-5.5-0.8-7-2.5C520.6,329.6,519.8,327.1,519.8,323.6z"/>
	<path class="st1" d="M557.8,329.7c-2.6-2.8-3.9-7-3.9-12.7s1.3-10,3.9-12.9s6.7-4.3,12.3-4.3c2.6,0,5,0.4,7.2,1.2
		c2.2,0.8,3.3,1.8,3.3,3.2c0,0.6-0.4,1.6-1.3,2.9c-0.9,1.3-1.5,2-2.1,2c-0.2,0-0.5-0.1-1.1-0.4c-1.9-0.9-3.8-1.4-6-1.4
		c-2.1,0-3.8,0.8-4.9,2.3c-1.1,1.6-1.7,4-1.7,7.3c0,3.3,0.5,5.7,1.6,7.3c1.1,1.6,2.7,2.4,4.9,2.4s4.3-0.5,6.4-1.5
		c0.7-0.3,1.1-0.4,1.1-0.4c0.6,0,1.3,0.6,2.1,1.9c0.8,1.2,1.2,2.2,1.2,3c0,0.8-0.5,1.5-1.4,2.1c-0.9,0.6-2,1.1-3.3,1.4
		c-2.7,0.6-4.8,0.9-6.3,0.9C564.4,333.8,560.4,332.4,557.8,329.7z"/>
	<path class="st1" d="M584.5,324.6c0-1.2,0.1-2.3,0.3-3.2c0.2-1,0.7-2,1.5-3.1c0.8-1.1,1.8-2,3-2.8c3-1.8,7.4-2.7,13.3-2.7v-2.1
		c0-2.4-1.6-3.6-4.9-3.6c-2.3,0-4.6,0.5-6.8,1.5c-0.8,0.3-1.2,0.5-1.3,0.5c-0.6,0-1.3-0.7-2.1-2c-0.8-1.3-1.2-2.3-1.2-3.1
		c0-1.1,1.2-2.1,3.5-3c2.3-0.9,5.2-1.3,8.5-1.3c9,0,13.6,3.5,13.6,10.6v11.9c0,2.6,0.1,4.8,0.4,6.6l0.4,2.6c0,0.7-0.9,1.2-2.6,1.5
		c-1.7,0.3-3,0.5-3.8,0.5c-0.8,0-1.4-0.1-1.7-0.3c-0.3-0.2-0.5-0.5-0.7-0.9s-0.3-0.7-0.4-0.9c-0.1-0.2-0.2-0.6-0.3-1.2
		s-0.2-0.9-0.2-1.1c-0.8,1.4-2.1,2.5-3.9,3.4c-1.9,0.9-3.6,1.4-5.4,1.4c-3.2,0-5.6-0.8-7.1-2.5C585.3,329.6,584.5,327.4,584.5,324.6
		z M593.8,323.6c0,0.8,0.3,1.5,0.8,2c0.5,0.5,1.4,0.8,2.5,0.8c1.1,0,2.2-0.4,3.2-1.1c1.1-0.8,1.8-1.7,2.3-2.8v-3.5
		C596.7,318.9,593.8,320.5,593.8,323.6z"/>
	<path class="st1" d="M632.7,326.4l1.7-0.3c0.5,0,1,0.6,1.4,1.9s0.6,2.1,0.6,2.7c0,2.1-2,3.1-6.1,3.1c-6.1,0-9.2-3.4-9.2-10.2v-15.9
		h-1c-1.3,0-1.9-1.1-1.9-3.2v-1.1c0-2.1,0.6-3.2,1.9-3.2h1l0.8-6c0.2-1.3,1.3-2,3.4-2h2c2.1,0,3.2,0.7,3.2,2v6h3.1
		c1.3,0,1.9,1.1,1.9,3.2v1.1c0,2.1-0.6,3.2-1.9,3.2h-3.1v16.1C630.4,325.5,631.2,326.4,632.7,326.4z"/>
	<path class="st1" d="M645.3,294.8c-2.5,0-3.8-0.7-3.8-2v-5.1c0-1.4,1.3-2,3.8-2h1.8c2.5,0,3.8,0.7,3.8,2v5.1c0,1.4-1.3,2-3.8,2
		H645.3z M641.6,331.4v-29.3c0-1.4,1.3-2,3.8-2h1.8c2.5,0,3.8,0.7,3.8,2v29.3c0,1.4-1.3,2-3.8,2h-1.8
		C642.8,333.4,641.6,332.7,641.6,331.4z"/>
	<path class="st1" d="M661.1,329.4c-2.6-2.9-3.9-7.2-3.9-12.7c0-5.5,1.3-9.7,3.9-12.6c2.6-2.9,6.4-4.4,11.4-4.4s8.8,1.5,11.4,4.4
		c2.6,2.9,3.9,7.1,3.9,12.6c0,5.5-1.3,9.7-3.9,12.7c-2.6,2.9-6.4,4.4-11.4,4.4S663.7,332.3,661.1,329.4z M666.7,316.8
		c0,6.4,1.9,9.6,5.8,9.6s5.8-3.2,5.8-9.6s-1.9-9.6-5.8-9.6S666.7,310.3,666.7,316.8z"/>
	<path class="st1" d="M694.4,331.4v-20c0-3.2-0.1-5.4-0.4-6.6c-0.3-1.3-0.4-2-0.4-2.3c0-0.7,0.9-1.2,2.6-1.5c1.7-0.3,3-0.5,3.8-0.5
		s1.4,0.1,1.7,0.3c0.3,0.2,0.5,0.4,0.7,0.8s0.3,0.7,0.4,0.9c0.1,0.2,0.2,0.6,0.3,1.2c0.1,0.5,0.2,0.9,0.2,1c1-1.4,2.4-2.5,4-3.4
		s3.5-1.4,5.4-1.4c3.2,0,5.5,0.8,7,2.5c1.5,1.7,2.3,4.2,2.3,7.7v21.4c0,1.4-1.3,2-3.8,2h-1.8c-2.5,0-3.8-0.7-3.8-2v-20
		c0-2.6-1.3-3.9-3.8-3.9c-2.1,0-3.8,1.2-5,3.7v20.3c0,1.4-1.3,2-3.8,2h-1.8C695.6,333.4,694.4,332.7,694.4,331.4z"/>
	<path class="st1" d="M728.2,324.6c0-1.2,0.1-2.3,0.3-3.2c0.2-1,0.7-2,1.5-3.1c0.8-1.1,1.8-2,3-2.8c3-1.8,7.4-2.7,13.3-2.7v-2.1
		c0-2.4-1.6-3.6-4.9-3.6c-2.3,0-4.6,0.5-6.8,1.5c-0.8,0.3-1.2,0.5-1.3,0.5c-0.6,0-1.3-0.7-2.1-2c-0.8-1.3-1.2-2.3-1.2-3.1
		c0-1.1,1.2-2.1,3.5-3s5.2-1.3,8.6-1.3c9,0,13.6,3.5,13.6,10.6v11.9c0,2.6,0.1,4.8,0.4,6.6l0.4,2.6c0,0.7-0.9,1.2-2.6,1.5
		c-1.7,0.3-3,0.5-3.8,0.5s-1.4-0.1-1.7-0.3s-0.5-0.5-0.7-0.9c-0.2-0.4-0.3-0.7-0.4-0.9c-0.1-0.2-0.2-0.6-0.3-1.2
		c-0.1-0.6-0.2-0.9-0.2-1.1c-0.8,1.4-2.1,2.5-3.9,3.4c-1.9,0.9-3.6,1.4-5.4,1.4c-3.2,0-5.6-0.8-7.1-2.5
		C729,329.6,728.2,327.4,728.2,324.6z M737.5,323.6c0,0.8,0.3,1.5,0.8,2s1.4,0.8,2.5,0.8s2.2-0.4,3.2-1.1c1.1-0.8,1.8-1.7,2.3-2.8
		v-3.5C740.5,318.9,737.5,320.5,737.5,323.6z"/>
	<path class="st1" d="M775.6,326.4l1.7-0.3c0.5,0,1,0.6,1.4,1.9c0.4,1.2,0.6,2.1,0.6,2.7c0,2.1-2,3.1-6.1,3.1
		c-6.1,0-9.2-3.4-9.2-10.2v-35.9c0-1.4,1.3-2,3.8-2h1.8c2.5,0,3.8,0.7,3.8,2v36C773.3,325.5,774.1,326.4,775.6,326.4z"/>
	<path class="st1" d="M450.4,413.4v-39.8c0-1.7,0.8-2.5,2.5-2.5h12.3c10.5,0,15.7,4,15.7,11.9c0,2.4-0.7,4.4-2,6.2
		c-1.3,1.8-3.1,3-5.4,3.9v0.3c0.8,0.3,1.6,1,2.5,2.1s1.5,2.4,2.1,3.7l5.6,13.9c0.2,0.5,0.3,0.9,0.3,1.2c0,0.8-1.3,1.3-3.8,1.3h-2.6
		c-2.1,0-3.3-0.4-3.7-1.3l-5-12.3c-0.7-1.4-1.5-2.4-2.3-2.9c-0.8-0.6-2.2-0.9-4.1-0.9h-2.5v15.4c0,1.4-1.3,2-3.8,2h-2.1
		C451.6,415.4,450.4,414.7,450.4,413.4z M460.1,389.5h6c1.3,0,2.4-0.5,3.4-1.6c1-1.1,1.5-2.3,1.5-3.8c0-1.5-0.5-2.7-1.4-3.5
		c-0.9-0.9-2.2-1.3-3.9-1.3h-5.6L460.1,389.5L460.1,389.5z"/>
	<path class="st1" d="M491.2,411.3c-2.7-3-4.1-7.3-4.1-12.9c0-5.6,1.4-9.8,4.1-12.6c2.7-2.8,6.4-4.2,11.2-4.2s8.2,1.5,10.4,4.6
		c2.2,3,3.3,7,3.3,11.8c0,0.5-0.4,1.3-1.3,2.2c-0.9,1-1.5,1.5-1.9,1.5h-16.1c0.2,2.4,0.9,4.1,2.1,5.1s2.8,1.5,4.7,1.5s3.7-0.3,5.4-1
		c1.7-0.7,2.6-1,2.6-1c0.6,0,1.3,0.6,2.1,1.9c0.8,1.2,1.2,2.2,1.2,2.9c0,1.4-1.3,2.5-3.9,3.3s-5.1,1.2-7.4,1.2
		C498.1,415.8,493.9,414.3,491.2,411.3z M507,395.5c0-1.9-0.4-3.5-1.1-4.6c-0.8-1.2-1.9-1.7-3.4-1.7c-3.1,0-5,2.1-5.7,6.4L507,395.5
		L507,395.5z"/>
	<path class="st1" d="M520.5,411.3c0-0.7,0.4-1.6,1.2-2.8s1.5-1.8,2.1-1.8c0.1,0,0.8,0.3,2.3,0.9c1.4,0.6,2.7,0.9,3.9,0.9
		c2.6,0,3.8-0.9,3.8-2.8c0-1-0.4-1.8-1.3-2.4c-0.9-0.6-1.9-1.1-3.2-1.5c-1.2-0.4-2.5-0.9-3.7-1.5c-1.2-0.6-2.3-1.6-3.2-2.9
		s-1.3-3.1-1.3-5.2c0-3.2,1-5.7,3.1-7.5s4.9-2.8,8.5-2.8c1.7,0,3.3,0.2,4.8,0.5c3,0.7,4.5,1.8,4.5,3.5c0,0.5-0.3,1.5-0.9,2.8
		s-1.2,1.9-1.8,1.9c0,0-0.7-0.2-1.9-0.7c-1.2-0.4-2.4-0.7-3.5-0.7c-2.3,0-3.4,0.8-3.4,2.3c0,0.8,0.4,1.5,1.3,2.1
		c0.9,0.5,1.9,1,3.2,1.5c1.2,0.4,2.5,1,3.7,1.6c1.2,0.7,2.3,1.7,3.2,3.1c0.9,1.4,1.3,3.1,1.3,5.2c0,3.3-1.1,6-3.2,8s-4.9,3-8.1,3
		s-6-0.4-8.2-1.2S520.5,412.7,520.5,411.3z"/>
	<path class="st1" d="M551.1,411.4c-2.6-2.9-3.9-7.2-3.9-12.7s1.3-9.7,3.9-12.6c2.6-2.9,6.4-4.4,11.4-4.4c5,0,8.8,1.5,11.4,4.4
		c2.6,2.9,3.9,7.1,3.9,12.6s-1.3,9.7-3.9,12.7c-2.6,2.9-6.4,4.4-11.4,4.4C557.5,415.8,553.7,414.3,551.1,411.4z M556.7,398.7
		c0,6.4,1.9,9.6,5.8,9.6s5.8-3.2,5.8-9.6s-1.9-9.6-5.8-9.6S556.7,392.3,556.7,398.7z"/>
	<path class="st1" d="M584.2,405.5v-21.4c0-1.3,1.3-2,3.8-2h1.8c2.5,0,3.8,0.7,3.8,2v20c0,2.6,1.3,3.9,3.8,3.9c2.1,0,3.8-1.2,5-3.7
		v-20.3c0-1.3,1.3-2,3.8-2h1.8c2.5,0,3.8,0.7,3.8,2v20c0,2.6,0.1,4.8,0.4,6.6l0.4,2.6c0,0.7-0.9,1.2-2.6,1.5s-3,0.5-3.8,0.5
		c-0.8,0-1.4-0.1-1.7-0.3c-0.3-0.2-0.5-0.5-0.7-0.9s-0.3-0.7-0.4-0.9c-0.1-0.2-0.2-0.6-0.3-1.2c-0.1-0.6-0.2-0.9-0.2-1.1
		c-1,1.4-2.3,2.5-4,3.4c-1.7,0.9-3.5,1.4-5.4,1.4c-3.2,0-5.5-0.8-7-2.5C585,411.6,584.2,409,584.2,405.5z"/>
	<path class="st1" d="M619.5,413.4v-20c0-3.2-0.1-5.4-0.4-6.6c-0.3-1.3-0.4-2-0.4-2.3c0-0.7,0.9-1.2,2.6-1.5c1.7-0.3,3-0.5,3.8-0.5
		s1.4,0.1,1.7,0.3s0.5,0.4,0.7,0.8c0.2,0.4,0.3,0.7,0.4,0.9c0.1,0.2,0.2,0.6,0.3,1.2c0.1,0.5,0.2,0.9,0.2,1c1.8-3.2,4.1-4.8,6.9-4.8
		c1.3,0,2.3,0.3,2.8,1c0.5,0.7,0.8,1.5,0.8,2.4s-0.2,2-0.6,3.3c-0.4,1.3-0.8,2-1.4,2c-0.3,0-0.7-0.1-1.3-0.3s-1.2-0.3-1.6-0.3
		c-2.1,0-3.8,1.1-5,3.2v20.3c0,1.4-1.3,2-3.8,2h-1.8C620.8,415.4,619.5,414.7,619.5,413.4z"/>
	<path class="st1" d="M645.3,411.6c-2.6-2.8-3.9-7-3.9-12.7c0-5.7,1.3-10,3.9-12.9c2.6-2.9,6.7-4.3,12.3-4.3c2.6,0,5,0.4,7.2,1.2
		s3.3,1.8,3.3,3.2c0,0.6-0.4,1.6-1.3,2.9c-0.9,1.3-1.5,2-2.1,2c-0.2,0-0.5-0.1-1.1-0.4c-1.9-0.9-3.8-1.4-6-1.4
		c-2.1,0-3.8,0.8-4.9,2.3c-1.1,1.6-1.7,4-1.7,7.3s0.5,5.7,1.6,7.3s2.7,2.4,4.9,2.4s4.3-0.5,6.4-1.5c0.7-0.3,1.1-0.4,1.1-0.4
		c0.6,0,1.3,0.6,2.1,1.9c0.8,1.2,1.2,2.2,1.2,3c0,0.8-0.5,1.5-1.4,2.1c-0.9,0.6-2,1.1-3.3,1.4c-2.7,0.6-4.8,0.9-6.3,0.9
		C651.9,415.8,647.9,414.4,645.3,411.6z"/>
	<path class="st1" d="M676,411.3c-2.7-3-4.1-7.3-4.1-12.9c0-5.6,1.4-9.8,4.1-12.6c2.7-2.8,6.4-4.2,11.2-4.2s8.2,1.5,10.4,4.6
		s3.3,7,3.3,11.8c0,0.5-0.4,1.3-1.3,2.2c-0.9,1-1.5,1.5-1.9,1.5h-16.1c0.2,2.4,0.9,4.1,2.1,5.1c1.2,1,2.8,1.5,4.7,1.5
		c1.9,0,3.7-0.3,5.4-1c1.7-0.7,2.6-1,2.7-1c0.6,0,1.3,0.6,2.1,1.9c0.8,1.2,1.2,2.2,1.2,2.9c0,1.4-1.3,2.5-3.9,3.3
		c-2.6,0.8-5.1,1.2-7.4,1.2C682.9,415.8,678.8,414.3,676,411.3z M691.8,395.5c0-1.9-0.4-3.5-1.1-4.6c-0.8-1.2-1.9-1.7-3.4-1.7
		c-3.1,0-5,2.1-5.7,6.4L691.8,395.5L691.8,395.5z"/>
	<path class="st1" d="M705.3,411.3c0-0.7,0.4-1.6,1.2-2.8c0.8-1.2,1.5-1.8,2.1-1.8c0.1,0,0.8,0.3,2.3,0.9s2.7,0.9,3.9,0.9
		c2.6,0,3.8-0.9,3.8-2.8c0-1-0.4-1.8-1.3-2.4c-0.9-0.6-1.9-1.1-3.2-1.5s-2.5-0.9-3.7-1.5s-2.3-1.6-3.2-2.9c-0.9-1.4-1.3-3.1-1.3-5.2
		c0-3.2,1-5.7,3.1-7.5c2.1-1.8,4.9-2.8,8.5-2.8c1.7,0,3.3,0.2,4.8,0.5c3,0.7,4.5,1.8,4.5,3.5c0,0.5-0.3,1.5-0.9,2.8
		c-0.6,1.3-1.2,1.9-1.8,1.9c0,0-0.7-0.2-1.9-0.7s-2.4-0.7-3.5-0.7c-2.3,0-3.4,0.8-3.4,2.3c0,0.8,0.4,1.5,1.3,2.1
		c0.9,0.5,1.9,1,3.2,1.5c1.2,0.4,2.5,1,3.7,1.6s2.3,1.7,3.2,3.1c0.9,1.4,1.3,3.1,1.3,5.2c0,3.3-1.1,6-3.2,8c-2.2,2-4.9,3-8.1,3
		s-6-0.4-8.2-1.2C706.4,413.8,705.3,412.7,705.3,411.3z"/>
</g>
<path class="st2" d="M110,441.9c31.4-9,64-14.6,96.5-18.9c61.7-8,129.6-9.1,187.8,14.5c6.2,2.5,20.9,7.4,26.4,4.2
	c6.7-4,6.4-9.1,6.2-12.4c-1.4-38.9-5.6-122.3-5.6-122.3s-2.9-63.2,2-98.8c6.5-4.3,13.9-12.2,15.8-24.8c0.1-20.3,2-28.7,13-44.9
	c3.9-5.7,13.5-16.7,8-23.2c-5.7-6.7-9.2,4.9-12,8.6c-2.5,3.2-17.3,22.2-21,18.1c-3.8-4.2,20.5-48.9,14.4-57.3
	c-6.4-8.9-14.4,16.2-15.4,18.2c-4.7,9.9-8.8,19.9-12.4,30.1c0,0.7-2.8,1.6-3.6,0.8c0-8.3-0.8-15.7-0.3-27.1
	c0.5-13.5,0.7-37.2-7.8-36.4c-9.1,0.8,0.5,59.1-9,63.1c-7.2,3-11.8-20.3-13.1-25.2c-2.2-8-3.1-26.6-10.2-27.8
	c-10.3-1.6-5.9,14.3-5,19.3c1.5,8.1,15.2,64,5.9,68.1c-6.4,2.8-16.8-12-23.9-15.9c-4.7-2.6-21.4-6.6-20.9,0.8c0.3,3.6,9,6.4,12,8.8
	c13.8,11,29.5,33.7,42.2,42.7c3.8,3.6,8.3,5.8,12.5,7.1c1.2,3.3,2.1,7,2.8,11.2c3.6,41.2,5.6,95.6,6.6,138.3
	c-12.7-27.5-30.1-53.5-47.7-77.5c-9-12.3-18.5-24.5-28.4-36.3c3.3-5.3,6.5-15.1,1.6-26.4c-8.9-14.4-11.3-21.2-10.8-37
	c0.2-5.6,2.1-17.2-4.6-19.6c-7-2.5-4.4,7.1-4.7,10.9c-0.3,3.3-2.4,22.6-6.8,21.2c-4.6-1.5-7.2-42.8-15.2-46.4
	c-8.5-3.8-3,17.2-2.8,19c1,8.9,2.6,17.6,4.6,26.3c0.3,0.5-1.3,2.3-2.2,2c-3.7-5.9-7.5-10.8-12.3-19.1c-5.6-9.8-18.9-27.8-22.3-21.3
	c-2.7,5.2,24.3,39.6,22.2,46.9c-1.7,5.9-17.4-9.7-20.5-12.6c-5.1-4.8-14.1-17.7-19.6-15.6c-8,2.9,2.1,12.5,5,15.7
	c4.7,5.2,39.3,39.4,34.5,46c-3.3,4.5-17.2-1.9-24.1-1.8c-4.5,0-18.2,3.8-14.5,8.8c1.8,2.5,9.2,1,12.4,1.5
	c14.6,2.3,35.9,12.2,48.9,13.6c5.1,1.3,10,0.7,14-0.4c7.6,9.3,14.9,18.7,22,28.2c19.9,26.6,39.4,56.1,52.3,87.4
	c-23.4-21.8-51.5-39.7-78.8-55.5c-13.6-7.9-27.6-15.4-41.9-22.4c-0.4-4.9-3.5-14.1-13.5-19.2c-13.2-4.7-18.2-7.7-26.4-18.2
	c-2.9-3.7-8-12.1-13.4-10.2c-5.6,2,1.2,6.8,3,9.4c1.6,2.2,10.8,15.7,7.3,17.1c-3.5,1.4-27.4-23.7-34.1-21.9
	c-7.1,1.9,7.5,12.6,8.6,13.6c5.4,5.2,11.1,9.9,16.9,14.5c0.4,0.1,0.4,2.1-0.3,2.4c-5.4-1.9-10.3-3.1-17.7-5.9
	c-8.7-3.4-22.4-7.7-20.9-1.9c1.2,4.7,32,12.6,34.7,18.3c2.2,4.6-15.7,2.7-19.1,2.4c-5.7-0.5-18-4.1-20.2,0c-3.2,6,8,6.9,11.5,7.4
	c5.6,0.9,44.8,5.1,45.5,11.8c0.5,4.6-11.3,7.6-15.4,11.2c-2.7,2.3-8.9,11.7-3.9,13.1c2.4,0.7,6-4.1,8.2-5.4
	c10-6,28.1-10.6,36.6-16.4c2.3-1.1,4.2-2.7,5.8-4.3c10,5.1,19.9,10.5,29.6,16c29.1,16.5,59.2,35.9,83.5,59.6
	c-35.6-16.8-75-26.6-113.7-33.1c-35.7-6-72.6-10-109.2-9.5c-2.6,0-15-0.3-15.4,4.6c-0.3,4.7,12.1,5.3,14.7,5.2
	c30.3-0.3,60.6,2.8,90.2,7.3c36.4,5.5,74.2,14.5,108.1,30.3c-34.4-9.2-70.6-12.7-105.8-13.7c-36.3-1.1-73.3,0.1-109.5,5.6
	c-2.6,0.4-14.9,1.8-14.5,6.6c0.4,4.7,12.7,3.5,15.3,3.2c29.9-4.5,60.4-5.6,90.4-5.2c38.2,0.4,78.3,4.4,115.3,16.3
	c-36.6-3-74-1-110,3.1c-39.3,4.5-79,11.3-117,22.1c-2.7,0.8-15.7,4-14.4,8.8C94.2,445.7,107.2,442.6,110,441.9z"/>
</svg>
